#!OML:ASF F:\VICON\USERDATA\INSTALL\rory3\rory3.ASF
:FULLY-SPECIFIED
:DEGREES
285
root -2.04845 17.728 14.513 137.272 80.1607 136.163
lowerback 11.9943 -0.27903 -7.24028
upperback 0.132844 -1.38155 -0.852361
thorax -6.45673 -0.43977 3.41761
lowerneck -20.5647 -5.73256 -12.0028
upperneck 29.2179 -6.00867 7.49644
head 14.0513 -2.76518 4.01244
rclavicle -2.91716e-014 -6.16232e-015
rhumerus -37.6404 -17.9331 -77.0176
rradius 28.5735
rwrist 8.17153
rhand -14.4787 9.96206
rfingers 7.12502
rthumb 11.6675 -19.6931
lclavicle -2.91716e-014 -6.16232e-015
lhumerus -27.1828 -3.29199 86.2762
lradius 47.374
lwrist 0.974877
lhand -21.7094 26.2102
lfingers 7.12502
lthumb 4.68935 56.1383
rfemur -30.0103 -3.31361 11.9202
rtibia 34.8487
rfoot -7.49617 -6.12357
rtoes 0.594206
lfemur 5.39803 3.88631 -32.3131
ltibia 12.7186
lfoot -10.9647 -11.0448
ltoes 7.77909
286
root -1.91156 17.7399 14.5283 140.729 79.9246 139.609
lowerback 12.0096 -0.512483 -7.04814
upperback 0.133066 -1.66167 -0.755355
thorax -6.43564 -0.582819 3.46002
lowerneck -20.5795 -5.74256 -12.1303
upperneck 29.207 -6.02808 7.65268
head 14.0637 -2.7669 4.09495
rclavicle 6.31141e-015 -4.37326e-015
rhumerus -37.8431 -18.1771 -76.9749
rradius 28.3755
rwrist 8.31594
rhand -14.6156 10.01
rfingers 7.12502
rthumb 11.5354 -19.6526
lclavicle 6.31141e-015 -4.37326e-015
lhumerus -26.9645 -3.56559 86.1998
lradius 47.3789
lwrist 0.86522
lhand -21.7103 26.2905
lfingers 7.12502
lthumb 4.6885 56.2186
rfemur -29.8563 -2.94603 12.2089
rtibia 32.4854
rfoot -6.65052 -6.51707
rtoes -0.216212
lfemur 6.28944 3.60474 -31.7873
ltibia 11.8608
lfoot -10.4743 -11.3419
ltoes 7.37471
287
root -1.76732 17.7412 14.5346 140.683 79.7462 139.574
lowerback 11.9475 -0.572793 -7.2396
upperback 0.152991 -1.76239 -0.788078
thorax -6.36398 -0.629117 3.54771
lowerneck -20.5521 -5.74491 -12.2074
upperneck 29.1797 -6.04558 7.76891
head 14.0559 -2.76788 4.15238
rclavicle -1.08586e-014 -2.76311e-014
rhumerus -38.0797 -18.3243 -76.9222
rradius 28.1794
rwrist 8.48586
rhand -14.7331 10.0433
rfingers 7.12502
rthumb 11.4222 -19.6256
lclavicle -1.08586e-014 -2.76311e-014
lhumerus -26.8014 -3.76252 86.1067
lradius 47.3775
lwrist 0.89518
lhand -21.8018 26.2401
lfingers 7.12502
lthumb 4.60015 56.1701
rfemur -29.7144 -2.5588 12.1002
rtibia 30.304
rfoot -6.03266 -6.72923
rtoes -3.79959
lfemur 7.28653 2.96776 -31.9077
ltibia 10.9948
lfoot -10.0433 -10.8594
ltoes 6.94745
288
root -1.62086 17.7382 14.5439 140.493 79.5582 139.431
lowerback 11.8788 -0.617351 -7.54328
upperback 0.211304 -1.85193 -0.793866
thorax -6.24409 -0.668831 3.72412
lowerneck -20.5209 -5.71965 -11.996
upperneck 29.0362 -6.00894 7.52438
head 13.9635 -2.76285 4.01588
rclavicle -2.36057e-015 -1.27222e-014
rhumerus -38.2791 -18.3 -76.9171
rradius 28.0606
rwrist 8.41945
rhand -14.7475 9.92493
rfingers 7.12502
rthumb 11.4083 -19.7447
lclavicle -2.36057e-015 -1.27222e-014
lhumerus -26.6122 -3.98207 86.0248
lradius 47.3498
lwrist 1.01878
lhand -22.1588 26.3
lfingers 7.12502
lthumb 4.25541 56.2372
rfemur -29.4837 -2.20263 11.9568
rtibia 28.2807
rfoot -5.84956 -6.61383
rtoes -5.40677
lfemur 8.22396 2.67969 -31.9726
ltibia 10.3098
lfoot -9.82198 -10.7085
ltoes 6.64327
289
root -1.47501 17.7322 14.5596 140.558 79.3027 139.6
lowerback 11.9159 -0.710099 -7.94279
upperback 0.257038 -2.02663 -0.772508
thorax -6.18175 -0.74458 3.99983
lowerneck -20.4585 -5.68304 -11.9761
upperneck 28.9398 -5.96203 7.49984
head 13.9005 -2.74513 4.00794
rclavicle -3.37934e-015 3.26007e-014
rhumerus -38.4653 -18.2943 -76.8716
rradius 27.889
rwrist 8.30315
rhand -14.6172 9.93717
rfingers 7.12502
rthumb 11.5339 -19.7255
lclavicle -3.37934e-015 3.26007e-014
lhumerus -26.4277 -3.98679 85.9033
lradius 47.1805
lwrist 0.932068
lhand -22.3128 26.1268
lfingers 7.12502
lthumb 4.10671 56.067
rfemur -29.1985 -1.83692 11.7848
rtibia 26.5473
rfoot -6.2326 -6.38188
rtoes -4.81104
lfemur 9.17858 2.17595 -31.9866
ltibia 9.64734
lfoot -9.47706 -10.5241
ltoes 6.36218
290
root -1.33021 17.7273 14.571 140.672 79.1018 139.804
lowerback 11.921 -0.773938 -8.18446
upperback 0.305691 -2.1403 -0.783551
thorax -6.11038 -0.796532 4.14129
lowerneck -20.3957 -5.70999 -12.1978
upperneck 28.8953 -6.02714 7.79879
head 13.8968 -2.75852 4.15619
rclavicle -6.5102e-015 1.05356e-014
rhumerus -38.6614 -18.4459 -76.7975
rradius 27.6558
rwrist 8.42249
rhand -14.5658 9.87502
rfingers 7.12502
rthumb 11.5835 -19.7848
lclavicle -6.5102e-015 1.05356e-014
lhumerus -26.2412 -3.87414 85.8164
lradius 46.9653
lwrist 0.676803
lhand -22.0103 25.7503
lfingers 7.12502
lthumb 4.39882 55.6846
rfemur -28.9138 -1.44767 11.6573
rtibia 25.0318
rfoot -6.7703 -5.89302
rtoes -9.06143
lfemur 9.95169 1.7045 -31.9565
ltibia 9.30637
lfoot -9.10402 -10.486
ltoes 6.58662
